PathFileType	4	(X/Y/Z) abd_2kg_3.trc																										
DataRate	CameraRate	NumFrames	NumMarkers	Units	OrigDataRate	OrigDataStartFrame	OrigNumFrames																					
100	100	53	9	mm	100	587	938																					
Frame#	Time	gu			centelbow			EpL			centpxt8			centijc7			ij			ts			aa			ai		
		X1	Y1	Z1	X2	Y2	Z2	X3	Y3	Z3	X4	Y4	Z4	X5	Y5	Z5	X6	Y6	Z6	X7	Y7	Z7	X8	Y8	Z8	X9	Y9	Z9  
586	5.86	-96.147	4.123	158.76	-95.351	-207.6	285.871	-100.345	-187.924	310.918	-46.816	-153.158	-8.669	-46.816	31.938	-8.669	0	0	0	-128.187	26.66	29.603	-131.755	33.401	148.626	-137.037	-85.94	40.938
587	5.87	-96.356	4.685	158.576	-95.484	-208.618	283.016	-100.479	-189.26	308.309	-46.816	-153.158	-8.669	-46.816	31.938	-8.669	0	0	0	-128.416	26.584	29.524	-132.009	33.008	148.564	-137.46	-86.032	40.55
588	5.88	-96.67	5.061	158.279	-95.906	-209.755	280.09	-100.852	-190.703	305.624	-46.816	-153.158	-8.669	-46.816	31.938	-8.669	0	0	0	-128.622	26.644	29.472	-132.301	32.763	148.526	-137.791	-85.991	40.199
589	5.89	-96.941	4.711	158.079	-96.754	-211.582	277.249	-101.625	-192.83	303.018	-46.816	-153.158	-8.669	-46.816	31.938	-8.669	0	0	0	-128.729	26.905	29.542	-132.551	32.682	148.608	-137.961	-85.756	39.932
590	5.9	-96.979	3.795	158.238	-97.816	-213.956	274.721	-102.636	-195.503	300.715	-46.816	-153.158	-8.669	-46.816	31.938	-8.669	0	0	0	-128.625	27.333	29.769	-132.603	32.694	148.849	-137.901	-85.361	39.752
591	5.91	-96.831	2.833	158.745	-98.91	-216.349	272.495	-103.733	-198.203	298.704	-46.816	-153.158	-8.669	-46.816	31.938	-8.669	0	0	0	-128.361	27.795	30.171	-132.468	32.655	149.268	-137.726	-84.934	39.668
592	5.92	-96.653	2.027	159.344	-99.985	-218.518	270.399	-104.839	-200.675	296.809	-46.816	-153.158	-8.669	-46.816	31.938	-8.669	0	0	0	-128.121	28.049	30.747	-132.314	32.353	149.863	-137.653	-84.71	39.705
593	5.93	-96.511	1.303	159.884	-101.01	-220.478	268.405	-105.873	-202.919	295.003	-46.816	-153.158	-8.669	-46.816	31.938	-8.669	0	0	0	-128.005	27.984	31.338	-132.23	31.732	150.472	-137.755	-84.797	39.757
594	5.94	-96.47	0.812	160.317	-101.984	-222.088	266.475	-106.802	-204.792	293.253	-46.816	-153.158	-8.669	-46.816	31.938	-8.669	0	0	0	-128.009	27.78	31.685	-132.203	31.021	150.835	-137.977	-85.018	39.62
595	5.95	-96.603	0.598	160.648	-103.008	-223.377	264.466	-107.721	-206.342	291.429	-46.816	-153.158	-8.669	-46.816	31.938	-8.669	0	0	0	-128.094	27.719	31.702	-132.223	30.512	150.866	-138.235	-85.093	39.212
596	5.96	-96.833	0.163	161.011	-104.186	-224.899	262.387	-108.754	-208.135	289.545	-46.816	-153.158	-8.669	-46.816	31.938	-8.669	0	0	0	-128.199	27.983	31.573	-132.273	30.343	150.748	-138.451	-84.845	38.673
597	5.97	-96.966	-0.828	161.367	-105.373	-226.971	260.227	-109.781	-210.488	287.582	-46.816	-153.158	-8.669	-46.816	31.938	-8.669	0	0	0	-128.265	28.555	31.551	-132.287	30.462	150.736	-138.583	-84.293	38.224
598	5.98	-96.972	-1.938	161.364	-106.292	-229.111	257.75	-110.55	-212.908	285.296	-46.816	-153.158	-8.669	-46.816	31.938	-8.669	0	0	0	-128.266	29.096	31.767	-132.23	30.549	150.96	-138.689	-83.767	38.011
599	5.99	-97.063	-2.637	160.929	-106.939	-230.767	254.969	-111.076	-214.837	282.692	-46.816	-153.158	-8.669	-46.816	31.938	-8.669	0	0	0	-128.232	29.168	32.204	-132.161	30.209	151.402	-138.867	-83.697	38.054
600	6	-97.345	-2.938	160.487	-107.497	-231.95	252.327	-111.543	-216.282	280.212	-46.816	-153.158	-8.669	-46.816	31.938	-8.669	0	0	0	-128.189	28.769	32.71	-132.138	29.465	151.91	-139.097	-84.086	38.223
601	6.01	-97.653	-3.04	160.32	-108.006	-232.868	250.076	-111.975	-217.45	278.111	-46.816	-153.158	-8.669	-46.816	31.938	-8.669	0	0	0	-128.103	28.369	33.045	-132.105	28.799	152.245	-139.224	-84.478	38.293
602	6.02	-97.853	-3.007	160.256	-108.491	-233.606	247.977	-112.38	-218.431	276.156	-46.816	-153.158	-8.669	-46.816	31.938	-8.669	0	0	0	-127.95	28.294	33.079	-132.008	28.553	152.277	-139.161	-84.551	38.158
603	6.03	-98.014	-3.06	160.145	-109.122	-234.425	245.765	-112.923	-219.499	274.088	-46.816	-153.158	-8.669	-46.816	31.938	-8.669	0	0	0	-127.793	28.405	32.932	-131.915	28.584	152.129	-138.999	-84.445	37.929
604	6.04	-98.207	-3.45	160.066	-109.96	-235.619	243.395	-113.682	-220.963	271.869	-46.816	-153.158	-8.669	-46.816	31.938	-8.669	0	0	0	-127.718	28.423	32.836	-131.94	28.558	152.029	-138.889	-84.433	37.784
605	6.05	-98.393	-3.877	159.989	-110.781	-236.89	240.832	-114.455	-222.53	269.462	-46.816	-153.158	-8.669	-46.816	31.938	-8.669	0	0	0	-127.753	28.312	32.873	-132.103	28.378	152.062	-138.897	-84.55	37.745
606	6.06	-98.422	-3.876	159.884	-111.318	-237.733	238.171	-114.978	-223.679	266.955	-46.816	-153.158	-8.669	-46.816	31.938	-8.669	0	0	0	-127.799	28.237	32.959	-132.258	28.185	152.143	-138.923	-84.632	37.709
607	6.07	-98.206	-3.627	159.968	-111.627	-238.277	235.757	-115.297	-224.521	264.684	-46.816	-153.158	-8.669	-46.816	31.938	-8.669	0	0	0	-127.709	28.33	32.977	-132.218	28.124	152.159	-138.811	-84.547	37.577
608	6.08	-97.943	-3.694	160.321	-112.069	-239.059	233.727	-115.755	-225.585	262.784	-46.816	-153.158	-8.669	-46.816	31.938	-8.669	0	0	0	-127.515	28.602	32.877	-131.996	28.235	152.06	-138.599	-84.283	37.329
609	6.09	-97.954	-4.287	160.685	-112.894	-240.296	231.823	-116.575	-227.089	261.003	-46.816	-153.158	-8.669	-46.816	31.938	-8.669	0	0	0	-127.385	28.868	32.825	-131.783	28.348	152.01	-138.493	-84.02	37.138
610	6.1	-98.279	-5.141	160.885	-113.956	-241.746	229.852	-117.613	-228.796	259.15	-46.816	-153.158	-8.669	-46.816	31.938	-8.669	0	0	0	-127.431	28.827	33.1	-131.742	28.157	152.288	-138.642	-84.056	37.276
611	6.11	-98.633	-5.748	160.911	-114.803	-242.909	227.824	-118.446	-230.206	257.231	-46.816	-153.158	-8.669	-46.816	31.938	-8.669	0	0	0	-127.625	28.497	33.659	-131.86	27.676	152.849	-138.991	-84.376	37.693
612	6.12	-98.697	-5.705	160.671	-115.02	-243.379	225.701	-118.679	-230.906	255.205	-46.816	-153.158	-8.669	-46.816	31.938	-8.669	0	0	0	-127.796	28.3	34.119	-131.939	27.326	153.311	-139.278	-84.565	38.013
613	6.13	-98.407	-5.134	160.195	-114.67	-243.27	223.529	-118.363	-231.008	253.117	-46.816	-153.158	-8.669	-46.816	31.938	-8.669	0	0	0	-127.82	28.494	34.238	-131.844	27.381	153.432	-139.334	-84.373	38.011
614	6.14	-98.013	-4.535	159.841	-114.306	-243.074	221.631	-118.033	-231.002	251.293	-46.816	-153.158	-8.669	-46.816	31.938	-8.669	0	0	0	-127.798	28.896	34.112	-131.695	27.683	153.31	-139.287	-83.976	37.803
615	6.15	-97.809	-4.234	159.874	-114.392	-243.127	220.2	-118.127	-231.232	249.932	-46.816	-153.158	-8.669	-46.816	31.938	-8.669	0	0	0	-127.832	29.211	33.953	-131.625	27.94	153.154	-139.284	-83.666	37.6
616	6.16	-97.835	-4.247	160.14	-114.896	-243.477	218.982	-118.596	-231.759	248.788	-46.816	-153.158	-8.669	-46.816	31.938	-8.669	0	0	0	-127.822	29.281	33.886	-131.555	27.977	153.088	-139.254	-83.599	37.508
617	6.17	-97.987	-4.491	160.325	-115.619	-244.051	217.633	-119.239	-232.518	247.522	-46.816	-153.158	-8.669	-46.816	31.938	-8.669	0	0	0	-127.682	29.104	33.926	-131.4	27.786	153.128	-139.132	-83.774	37.535
618	6.18	-98.185	-4.897	160.323	-116.474	-244.766	216.112	-119.994	-233.416	246.082	-46.816	-153.158	-8.669	-46.816	31.938	-8.669	0	0	0	-127.532	28.874	34.032	-131.27	27.554	153.234	-139.026	-84	37.637
619	6.19	-98.313	-5.337	160.242	-117.324	-245.49	214.55	-120.762	-234.317	244.596	-46.816	-153.158	-8.669	-46.816	31.938	-8.669	0	0	0	-127.504	28.854	34.175	-131.281	27.528	153.375	-139.028	-84.017	37.769
620	6.2	-98.317	-5.611	160.21	-118.041	-246.039	213.029	-121.436	-235.042	243.145	-46.816	-153.158	-8.669	-46.816	31.938	-8.669	0	0	0	-127.538	29.103	34.357	-131.354	27.763	153.556	-139.063	-83.768	37.934
621	6.21	-98.298	-5.726	160.325	-118.716	-246.424	211.627	-122.105	-235.607	241.808	-46.816	-153.158	-8.669	-46.816	31.938	-8.669	0	0	0	-127.498	29.397	34.545	-131.323	28.055	153.744	-139.043	-83.473	38.119
622	6.22	-98.332	-5.902	160.619	-119.479	-246.851	210.425	-122.871	-236.209	240.669	-46.816	-153.158	-8.669	-46.816	31.938	-8.669	0	0	0	-127.371	29.502	34.667	-131.139	28.187	153.868	-139.027	-83.355	38.268
623	6.23	-98.367	-6.156	160.964	-120.229	-247.33	209.35	-123.599	-236.856	239.654	-46.816	-153.158	-8.669	-46.816	31.938	-8.669	0	0	0	-127.242	29.45	34.717	-130.873	28.195	153.922	-139.106	-83.384	38.382
624	6.24	-98.418	-6.27	161.163	-120.838	-247.664	208.18	-124.14	-237.357	238.55	-46.816	-153.158	-8.669	-46.816	31.938	-8.669	0	0	0	-127.164	29.369	34.776	-130.621	28.213	153.988	-139.273	-83.436	38.545
625	6.25	-98.636	-6.057	161.08	-121.376	-247.691	206.689	-124.568	-237.563	237.13	-46.816	-153.158	-8.669	-46.816	31.938	-8.669	0	0	0	-127.169	29.263	34.878	-130.496	28.233	154.095	-139.489	-83.514	38.774
626	6.26	-99.013	-5.489	160.762	-121.9	-247.385	204.882	-124.96	-237.452	235.401	-46.816	-153.158	-8.669	-46.816	31.938	-8.669	0	0	0	-127.294	29.145	34.956	-130.57	28.237	154.175	-139.742	-83.614	38.969
627	6.27	-99.297	-4.849	160.58	-122.395	-246.991	203.217	-125.33	-237.252	233.81	-46.816	-153.158	-8.669	-46.816	31.938	-8.669	0	0	0	-127.473	29.053	35.004	-130.745	28.231	154.224	-139.971	-83.697	39.097
628	6.28	-99.289	-4.602	160.93	-122.917	-246.928	202.208	-125.746	-237.361	232.866	-46.816	-153.158	-8.669	-46.816	31.938	-8.669	0	0	0	-127.498	28.96	35.143	-130.77	28.166	154.363	-140.028	-83.786	39.262
629	6.29	-98.994	-4.946	161.643	-123.483	-247.386	201.731	-126.21	-237.965	232.443	-46.816	-153.158	-8.669	-46.816	31.938	-8.669	0	0	0	-127.236	28.881	35.388	-130.482	28.059	154.609	-139.819	-83.86	39.482
630	6.3	-98.574	-5.598	162.102	-124.011	-248.108	201.17	-126.609	-238.813	231.932	-46.816	-153.158	-8.669	-46.816	31.938	-8.669	0	0	0	-126.807	28.884	35.606	-129.988	28.01	154.828	-139.459	-83.851	39.656
631	6.31	-98.279	-6.139	162.08	-124.494	-248.705	200.271	-126.928	-239.526	231.08	-46.816	-153.158	-8.669	-46.816	31.938	-8.669	0	0	0	-126.49	28.957	35.744	-129.57	28.042	154.968	-139.227	-83.769	39.764
632	6.32	-98.209	-6.566	161.929	-124.988	-249.197	199.312	-127.249	-240.129	230.168	-46.816	-153.158	-8.669	-46.816	31.938	-8.669	0	0	0	-126.499	29.029	35.83	-129.417	28.081	155.058	-139.337	-83.686	39.833
633	6.33	-98.197	-7.134	161.86	-125.385	-249.839	198.463	-127.494	-240.879	229.362	-46.816	-153.158	-8.669	-46.816	31.938	-8.669	0	0	0	-126.792	29.04	35.826	-129.457	28.044	155.06	-139.736	-83.664	39.808
634	6.34	-98.042	-7.746	161.73	-125.44	-250.534	197.611	-127.428	-241.676	228.547	-46.816	-153.158	-8.669	-46.816	31.938	-8.669	0	0	0	-127.105	29.018	35.693	-129.453	27.951	154.932	-140.135	-83.678	39.641
635	6.35	-97.767	-8.052	161.516	-125.121	-250.937	196.767	-127.02	-242.169	227.734	-46.816	-153.158	-8.669	-46.816	31.938	-8.669	0	0	0	-127.239	29.033	35.488	-129.276	27.906	154.733	-140.302	-83.66	39.413
636	6.36	-97.554	-7.949	161.369	-124.709	-250.937	196.065	-126.546	-242.248	227.058	-46.816	-153.158	-8.669	-46.816	31.938	-8.669	0	0	0	-127.248	29.051	35.334	-129.051	27.917	154.583	-140.304	-83.642	39.278
637	6.37	-97.48	-7.647	161.291	-124.446	-250.727	195.489	-126.235	-242.108	226.504	-46.816	-153.158	-8.669	-46.816	31.938	-8.669	0	0	0	-127.253	28.988	35.326	-128.926	27.901	154.577	-140.306	-83.703	39.329
638	6.38	-97.45	-7.428	161.204	-124.337	-250.577	194.965	-126.081	-242.02	226	-46.816	-153.158	-8.669	-46.816	31.938	-8.669	0	0	0	-127.207	28.854	35.459	-128.832	27.825	154.711	-140.284	-83.832	39.521
